<mxfile host="Electron" modified="2023-12-15T16:26:42.359Z" agent="Mozilla/5.0 (X11; Linux x86_64) AppleWebKit/537.36 (KHTML, like Gecko) draw.io/22.1.2 Chrome/114.0.5735.289 Electron/25.9.4 Safari/537.36" etag="aQ142lHn-FGiW9P4fCsN" version="22.1.2" type="device">
  <diagram name="Page-1" id="2SS-NyKNGIV7A5oFxDBD">
    <mxGraphModel dx="1366" dy="736" grid="1" gridSize="10" guides="1" tooltips="1" connect="1" arrows="1" fold="1" page="1" pageScale="1" pageWidth="1100" pageHeight="850" math="0" shadow="0">
      <root>
        <mxCell id="0" />
        <mxCell id="1" parent="0" />
        <mxCell id="6Nme4GcsVJMJShtL-cmH-2" value="" style="shape=cylinder3;whiteSpace=wrap;html=1;boundedLbl=1;backgroundOutline=1;size=15;rotation=90;" vertex="1" parent="1">
          <mxGeometry x="178" y="318" width="65" height="146" as="geometry" />
        </mxCell>
        <mxCell id="6Nme4GcsVJMJShtL-cmH-3" value="" style="fontStyle=1;align=center;verticalAlign=top;childLayout=stackLayout;horizontal=1;horizontalStack=0;resizeParent=1;resizeParentMax=0;resizeLast=0;marginBottom=0;" vertex="1" parent="1">
          <mxGeometry x="490" y="345" width="172.5" height="161" as="geometry" />
        </mxCell>
        <mxCell id="6Nme4GcsVJMJShtL-cmH-4" value="Process service" style="html=1;align=left;spacingLeft=4;verticalAlign=top;strokeColor=none;fillColor=none;whiteSpace=wrap;" vertex="1" parent="6Nme4GcsVJMJShtL-cmH-3">
          <mxGeometry width="172.5" height="40" as="geometry" />
        </mxCell>
        <mxCell id="6Nme4GcsVJMJShtL-cmH-5" value="" style="shape=module;jettyWidth=10;jettyHeight=4;" vertex="1" parent="6Nme4GcsVJMJShtL-cmH-4">
          <mxGeometry x="1" width="16" height="20" relative="1" as="geometry">
            <mxPoint x="-25" y="9" as="offset" />
          </mxGeometry>
        </mxCell>
        <mxCell id="6Nme4GcsVJMJShtL-cmH-6" value="" style="line;strokeWidth=1;fillColor=none;align=left;verticalAlign=middle;spacingTop=-1;spacingLeft=3;spacingRight=3;rotatable=0;labelPosition=right;points=[];portConstraint=eastwest;" vertex="1" parent="6Nme4GcsVJMJShtL-cmH-3">
          <mxGeometry y="40" width="172.5" height="8" as="geometry" />
        </mxCell>
        <mxCell id="6Nme4GcsVJMJShtL-cmH-7" value="provided interfaces" style="html=1;align=center;spacingLeft=4;verticalAlign=top;strokeColor=none;fillColor=none;whiteSpace=wrap;" vertex="1" parent="6Nme4GcsVJMJShtL-cmH-3">
          <mxGeometry y="48" width="172.5" height="25" as="geometry" />
        </mxCell>
        <mxCell id="6Nme4GcsVJMJShtL-cmH-8" value="Interface1" style="html=1;align=left;spacingLeft=4;verticalAlign=top;strokeColor=none;fillColor=none;whiteSpace=wrap;" vertex="1" parent="6Nme4GcsVJMJShtL-cmH-3">
          <mxGeometry y="73" width="172.5" height="25" as="geometry" />
        </mxCell>
        <mxCell id="6Nme4GcsVJMJShtL-cmH-9" value="" style="line;strokeWidth=1;fillColor=none;align=left;verticalAlign=middle;spacingTop=-1;spacingLeft=3;spacingRight=3;rotatable=0;labelPosition=right;points=[];portConstraint=eastwest;" vertex="1" parent="6Nme4GcsVJMJShtL-cmH-3">
          <mxGeometry y="98" width="172.5" height="8" as="geometry" />
        </mxCell>
        <mxCell id="6Nme4GcsVJMJShtL-cmH-10" value="required interfaces" style="html=1;align=center;spacingLeft=4;verticalAlign=top;strokeColor=none;fillColor=none;whiteSpace=wrap;" vertex="1" parent="6Nme4GcsVJMJShtL-cmH-3">
          <mxGeometry y="106" width="172.5" height="25" as="geometry" />
        </mxCell>
        <mxCell id="6Nme4GcsVJMJShtL-cmH-11" value="Interface2" style="html=1;align=left;spacingLeft=4;verticalAlign=top;strokeColor=none;fillColor=none;whiteSpace=wrap;" vertex="1" parent="6Nme4GcsVJMJShtL-cmH-3">
          <mxGeometry y="131" width="172.5" height="30" as="geometry" />
        </mxCell>
        <mxCell id="6Nme4GcsVJMJShtL-cmH-14" value="" style="fontStyle=1;align=center;verticalAlign=top;childLayout=stackLayout;horizontal=1;horizontalStack=0;resizeParent=1;resizeParentMax=0;resizeLast=0;marginBottom=0;" vertex="1" parent="1">
          <mxGeometry x="810" y="140" width="172.5" height="161" as="geometry" />
        </mxCell>
        <mxCell id="6Nme4GcsVJMJShtL-cmH-15" value="Order service" style="html=1;align=left;spacingLeft=4;verticalAlign=top;strokeColor=none;fillColor=none;whiteSpace=wrap;" vertex="1" parent="6Nme4GcsVJMJShtL-cmH-14">
          <mxGeometry width="172.5" height="40" as="geometry" />
        </mxCell>
        <mxCell id="6Nme4GcsVJMJShtL-cmH-16" value="" style="shape=module;jettyWidth=10;jettyHeight=4;" vertex="1" parent="6Nme4GcsVJMJShtL-cmH-15">
          <mxGeometry x="1" width="16" height="20" relative="1" as="geometry">
            <mxPoint x="-25" y="9" as="offset" />
          </mxGeometry>
        </mxCell>
        <mxCell id="6Nme4GcsVJMJShtL-cmH-17" value="" style="line;strokeWidth=1;fillColor=none;align=left;verticalAlign=middle;spacingTop=-1;spacingLeft=3;spacingRight=3;rotatable=0;labelPosition=right;points=[];portConstraint=eastwest;" vertex="1" parent="6Nme4GcsVJMJShtL-cmH-14">
          <mxGeometry y="40" width="172.5" height="8" as="geometry" />
        </mxCell>
        <mxCell id="6Nme4GcsVJMJShtL-cmH-18" value="provided interfaces" style="html=1;align=center;spacingLeft=4;verticalAlign=top;strokeColor=none;fillColor=none;whiteSpace=wrap;" vertex="1" parent="6Nme4GcsVJMJShtL-cmH-14">
          <mxGeometry y="48" width="172.5" height="25" as="geometry" />
        </mxCell>
        <mxCell id="6Nme4GcsVJMJShtL-cmH-19" value="Interface1" style="html=1;align=left;spacingLeft=4;verticalAlign=top;strokeColor=none;fillColor=none;whiteSpace=wrap;" vertex="1" parent="6Nme4GcsVJMJShtL-cmH-14">
          <mxGeometry y="73" width="172.5" height="25" as="geometry" />
        </mxCell>
        <mxCell id="6Nme4GcsVJMJShtL-cmH-20" value="" style="line;strokeWidth=1;fillColor=none;align=left;verticalAlign=middle;spacingTop=-1;spacingLeft=3;spacingRight=3;rotatable=0;labelPosition=right;points=[];portConstraint=eastwest;" vertex="1" parent="6Nme4GcsVJMJShtL-cmH-14">
          <mxGeometry y="98" width="172.5" height="8" as="geometry" />
        </mxCell>
        <mxCell id="6Nme4GcsVJMJShtL-cmH-21" value="required interfaces" style="html=1;align=center;spacingLeft=4;verticalAlign=top;strokeColor=none;fillColor=none;whiteSpace=wrap;" vertex="1" parent="6Nme4GcsVJMJShtL-cmH-14">
          <mxGeometry y="106" width="172.5" height="25" as="geometry" />
        </mxCell>
        <mxCell id="6Nme4GcsVJMJShtL-cmH-22" value="Interface2" style="html=1;align=left;spacingLeft=4;verticalAlign=top;strokeColor=none;fillColor=none;whiteSpace=wrap;" vertex="1" parent="6Nme4GcsVJMJShtL-cmH-14">
          <mxGeometry y="131" width="172.5" height="30" as="geometry" />
        </mxCell>
        <mxCell id="6Nme4GcsVJMJShtL-cmH-23" value="" style="fontStyle=1;align=center;verticalAlign=top;childLayout=stackLayout;horizontal=1;horizontalStack=0;resizeParent=1;resizeParentMax=0;resizeLast=0;marginBottom=0;" vertex="1" parent="1">
          <mxGeometry x="100" y="130" width="172.5" height="161" as="geometry" />
        </mxCell>
        <mxCell id="6Nme4GcsVJMJShtL-cmH-24" value="Payment service" style="html=1;align=left;spacingLeft=4;verticalAlign=top;strokeColor=none;fillColor=none;whiteSpace=wrap;" vertex="1" parent="6Nme4GcsVJMJShtL-cmH-23">
          <mxGeometry width="172.5" height="40" as="geometry" />
        </mxCell>
        <mxCell id="6Nme4GcsVJMJShtL-cmH-25" value="" style="shape=module;jettyWidth=10;jettyHeight=4;" vertex="1" parent="6Nme4GcsVJMJShtL-cmH-24">
          <mxGeometry x="1" width="16" height="20" relative="1" as="geometry">
            <mxPoint x="-25" y="9" as="offset" />
          </mxGeometry>
        </mxCell>
        <mxCell id="6Nme4GcsVJMJShtL-cmH-26" value="" style="line;strokeWidth=1;fillColor=none;align=left;verticalAlign=middle;spacingTop=-1;spacingLeft=3;spacingRight=3;rotatable=0;labelPosition=right;points=[];portConstraint=eastwest;" vertex="1" parent="6Nme4GcsVJMJShtL-cmH-23">
          <mxGeometry y="40" width="172.5" height="8" as="geometry" />
        </mxCell>
        <mxCell id="6Nme4GcsVJMJShtL-cmH-27" value="provided interfaces" style="html=1;align=center;spacingLeft=4;verticalAlign=top;strokeColor=none;fillColor=none;whiteSpace=wrap;" vertex="1" parent="6Nme4GcsVJMJShtL-cmH-23">
          <mxGeometry y="48" width="172.5" height="25" as="geometry" />
        </mxCell>
        <mxCell id="6Nme4GcsVJMJShtL-cmH-28" value="Interface1" style="html=1;align=left;spacingLeft=4;verticalAlign=top;strokeColor=none;fillColor=none;whiteSpace=wrap;" vertex="1" parent="6Nme4GcsVJMJShtL-cmH-23">
          <mxGeometry y="73" width="172.5" height="25" as="geometry" />
        </mxCell>
        <mxCell id="6Nme4GcsVJMJShtL-cmH-29" value="" style="line;strokeWidth=1;fillColor=none;align=left;verticalAlign=middle;spacingTop=-1;spacingLeft=3;spacingRight=3;rotatable=0;labelPosition=right;points=[];portConstraint=eastwest;" vertex="1" parent="6Nme4GcsVJMJShtL-cmH-23">
          <mxGeometry y="98" width="172.5" height="8" as="geometry" />
        </mxCell>
        <mxCell id="6Nme4GcsVJMJShtL-cmH-30" value="required interfaces" style="html=1;align=center;spacingLeft=4;verticalAlign=top;strokeColor=none;fillColor=none;whiteSpace=wrap;" vertex="1" parent="6Nme4GcsVJMJShtL-cmH-23">
          <mxGeometry y="106" width="172.5" height="25" as="geometry" />
        </mxCell>
        <mxCell id="6Nme4GcsVJMJShtL-cmH-31" value="Interface2" style="html=1;align=left;spacingLeft=4;verticalAlign=top;strokeColor=none;fillColor=none;whiteSpace=wrap;" vertex="1" parent="6Nme4GcsVJMJShtL-cmH-23">
          <mxGeometry y="131" width="172.5" height="30" as="geometry" />
        </mxCell>
        <mxCell id="6Nme4GcsVJMJShtL-cmH-32" value="-" style="fontStyle=1;align=center;verticalAlign=top;childLayout=stackLayout;horizontal=1;horizontalStack=0;resizeParent=1;resizeParentMax=0;resizeLast=0;marginBottom=0;" vertex="1" parent="1">
          <mxGeometry x="90" y="580" width="172.5" height="161" as="geometry" />
        </mxCell>
        <mxCell id="6Nme4GcsVJMJShtL-cmH-33" value="Etiquet service" style="html=1;align=left;spacingLeft=4;verticalAlign=top;strokeColor=none;fillColor=none;whiteSpace=wrap;" vertex="1" parent="6Nme4GcsVJMJShtL-cmH-32">
          <mxGeometry width="172.5" height="40" as="geometry" />
        </mxCell>
        <mxCell id="6Nme4GcsVJMJShtL-cmH-34" value="" style="shape=module;jettyWidth=10;jettyHeight=4;" vertex="1" parent="6Nme4GcsVJMJShtL-cmH-33">
          <mxGeometry x="1" width="16" height="20" relative="1" as="geometry">
            <mxPoint x="-25" y="9" as="offset" />
          </mxGeometry>
        </mxCell>
        <mxCell id="6Nme4GcsVJMJShtL-cmH-35" value="" style="line;strokeWidth=1;fillColor=none;align=left;verticalAlign=middle;spacingTop=-1;spacingLeft=3;spacingRight=3;rotatable=0;labelPosition=right;points=[];portConstraint=eastwest;" vertex="1" parent="6Nme4GcsVJMJShtL-cmH-32">
          <mxGeometry y="40" width="172.5" height="8" as="geometry" />
        </mxCell>
        <mxCell id="6Nme4GcsVJMJShtL-cmH-36" value="provided interfaces" style="html=1;align=center;spacingLeft=4;verticalAlign=top;strokeColor=none;fillColor=none;whiteSpace=wrap;" vertex="1" parent="6Nme4GcsVJMJShtL-cmH-32">
          <mxGeometry y="48" width="172.5" height="25" as="geometry" />
        </mxCell>
        <mxCell id="6Nme4GcsVJMJShtL-cmH-37" value="Interface1" style="html=1;align=left;spacingLeft=4;verticalAlign=top;strokeColor=none;fillColor=none;whiteSpace=wrap;" vertex="1" parent="6Nme4GcsVJMJShtL-cmH-32">
          <mxGeometry y="73" width="172.5" height="25" as="geometry" />
        </mxCell>
        <mxCell id="6Nme4GcsVJMJShtL-cmH-38" value="" style="line;strokeWidth=1;fillColor=none;align=left;verticalAlign=middle;spacingTop=-1;spacingLeft=3;spacingRight=3;rotatable=0;labelPosition=right;points=[];portConstraint=eastwest;" vertex="1" parent="6Nme4GcsVJMJShtL-cmH-32">
          <mxGeometry y="98" width="172.5" height="8" as="geometry" />
        </mxCell>
        <mxCell id="6Nme4GcsVJMJShtL-cmH-39" value="required interfaces" style="html=1;align=center;spacingLeft=4;verticalAlign=top;strokeColor=none;fillColor=none;whiteSpace=wrap;" vertex="1" parent="6Nme4GcsVJMJShtL-cmH-32">
          <mxGeometry y="106" width="172.5" height="25" as="geometry" />
        </mxCell>
        <mxCell id="6Nme4GcsVJMJShtL-cmH-40" value="Interface2" style="html=1;align=left;spacingLeft=4;verticalAlign=top;strokeColor=none;fillColor=none;whiteSpace=wrap;" vertex="1" parent="6Nme4GcsVJMJShtL-cmH-32">
          <mxGeometry y="131" width="172.5" height="30" as="geometry" />
        </mxCell>
        <mxCell id="6Nme4GcsVJMJShtL-cmH-41" value="" style="fontStyle=1;align=center;verticalAlign=top;childLayout=stackLayout;horizontal=1;horizontalStack=0;resizeParent=1;resizeParentMax=0;resizeLast=0;marginBottom=0;" vertex="1" parent="1">
          <mxGeometry x="790" y="560" width="172.5" height="161" as="geometry" />
        </mxCell>
        <mxCell id="6Nme4GcsVJMJShtL-cmH-42" value="Email service" style="html=1;align=left;spacingLeft=4;verticalAlign=top;strokeColor=none;fillColor=none;whiteSpace=wrap;" vertex="1" parent="6Nme4GcsVJMJShtL-cmH-41">
          <mxGeometry width="172.5" height="40" as="geometry" />
        </mxCell>
        <mxCell id="6Nme4GcsVJMJShtL-cmH-43" value="" style="shape=module;jettyWidth=10;jettyHeight=4;" vertex="1" parent="6Nme4GcsVJMJShtL-cmH-42">
          <mxGeometry x="1" width="16" height="20" relative="1" as="geometry">
            <mxPoint x="-25" y="9" as="offset" />
          </mxGeometry>
        </mxCell>
        <mxCell id="6Nme4GcsVJMJShtL-cmH-44" value="" style="line;strokeWidth=1;fillColor=none;align=left;verticalAlign=middle;spacingTop=-1;spacingLeft=3;spacingRight=3;rotatable=0;labelPosition=right;points=[];portConstraint=eastwest;" vertex="1" parent="6Nme4GcsVJMJShtL-cmH-41">
          <mxGeometry y="40" width="172.5" height="8" as="geometry" />
        </mxCell>
        <mxCell id="6Nme4GcsVJMJShtL-cmH-45" value="provided interfaces" style="html=1;align=center;spacingLeft=4;verticalAlign=top;strokeColor=none;fillColor=none;whiteSpace=wrap;" vertex="1" parent="6Nme4GcsVJMJShtL-cmH-41">
          <mxGeometry y="48" width="172.5" height="25" as="geometry" />
        </mxCell>
        <mxCell id="6Nme4GcsVJMJShtL-cmH-46" value="Interface1" style="html=1;align=left;spacingLeft=4;verticalAlign=top;strokeColor=none;fillColor=none;whiteSpace=wrap;" vertex="1" parent="6Nme4GcsVJMJShtL-cmH-41">
          <mxGeometry y="73" width="172.5" height="25" as="geometry" />
        </mxCell>
        <mxCell id="6Nme4GcsVJMJShtL-cmH-47" value="" style="line;strokeWidth=1;fillColor=none;align=left;verticalAlign=middle;spacingTop=-1;spacingLeft=3;spacingRight=3;rotatable=0;labelPosition=right;points=[];portConstraint=eastwest;" vertex="1" parent="6Nme4GcsVJMJShtL-cmH-41">
          <mxGeometry y="98" width="172.5" height="8" as="geometry" />
        </mxCell>
        <mxCell id="6Nme4GcsVJMJShtL-cmH-48" value="required interfaces" style="html=1;align=center;spacingLeft=4;verticalAlign=top;strokeColor=none;fillColor=none;whiteSpace=wrap;" vertex="1" parent="6Nme4GcsVJMJShtL-cmH-41">
          <mxGeometry y="106" width="172.5" height="25" as="geometry" />
        </mxCell>
        <mxCell id="6Nme4GcsVJMJShtL-cmH-49" value="Interface2" style="html=1;align=left;spacingLeft=4;verticalAlign=top;strokeColor=none;fillColor=none;whiteSpace=wrap;" vertex="1" parent="6Nme4GcsVJMJShtL-cmH-41">
          <mxGeometry y="131" width="172.5" height="30" as="geometry" />
        </mxCell>
        <mxCell id="6Nme4GcsVJMJShtL-cmH-50" value="" style="fontStyle=1;align=center;verticalAlign=top;childLayout=stackLayout;horizontal=1;horizontalStack=0;resizeParent=1;resizeParentMax=0;resizeLast=0;marginBottom=0;" vertex="1" parent="1">
          <mxGeometry x="820" y="345" width="172.5" height="161" as="geometry" />
        </mxCell>
        <mxCell id="6Nme4GcsVJMJShtL-cmH-51" value="Monitoring service" style="html=1;align=left;spacingLeft=4;verticalAlign=top;strokeColor=none;fillColor=none;whiteSpace=wrap;" vertex="1" parent="6Nme4GcsVJMJShtL-cmH-50">
          <mxGeometry width="172.5" height="40" as="geometry" />
        </mxCell>
        <mxCell id="6Nme4GcsVJMJShtL-cmH-52" value="" style="shape=module;jettyWidth=10;jettyHeight=4;" vertex="1" parent="6Nme4GcsVJMJShtL-cmH-51">
          <mxGeometry x="1" width="16" height="20" relative="1" as="geometry">
            <mxPoint x="-25" y="9" as="offset" />
          </mxGeometry>
        </mxCell>
        <mxCell id="6Nme4GcsVJMJShtL-cmH-53" value="" style="line;strokeWidth=1;fillColor=none;align=left;verticalAlign=middle;spacingTop=-1;spacingLeft=3;spacingRight=3;rotatable=0;labelPosition=right;points=[];portConstraint=eastwest;" vertex="1" parent="6Nme4GcsVJMJShtL-cmH-50">
          <mxGeometry y="40" width="172.5" height="8" as="geometry" />
        </mxCell>
        <mxCell id="6Nme4GcsVJMJShtL-cmH-54" value="provided interfaces" style="html=1;align=center;spacingLeft=4;verticalAlign=top;strokeColor=none;fillColor=none;whiteSpace=wrap;" vertex="1" parent="6Nme4GcsVJMJShtL-cmH-50">
          <mxGeometry y="48" width="172.5" height="25" as="geometry" />
        </mxCell>
        <mxCell id="6Nme4GcsVJMJShtL-cmH-55" value="Interface1" style="html=1;align=left;spacingLeft=4;verticalAlign=top;strokeColor=none;fillColor=none;whiteSpace=wrap;" vertex="1" parent="6Nme4GcsVJMJShtL-cmH-50">
          <mxGeometry y="73" width="172.5" height="25" as="geometry" />
        </mxCell>
        <mxCell id="6Nme4GcsVJMJShtL-cmH-56" value="" style="line;strokeWidth=1;fillColor=none;align=left;verticalAlign=middle;spacingTop=-1;spacingLeft=3;spacingRight=3;rotatable=0;labelPosition=right;points=[];portConstraint=eastwest;" vertex="1" parent="6Nme4GcsVJMJShtL-cmH-50">
          <mxGeometry y="98" width="172.5" height="8" as="geometry" />
        </mxCell>
        <mxCell id="6Nme4GcsVJMJShtL-cmH-57" value="required interfaces" style="html=1;align=center;spacingLeft=4;verticalAlign=top;strokeColor=none;fillColor=none;whiteSpace=wrap;" vertex="1" parent="6Nme4GcsVJMJShtL-cmH-50">
          <mxGeometry y="106" width="172.5" height="25" as="geometry" />
        </mxCell>
        <mxCell id="6Nme4GcsVJMJShtL-cmH-58" value="Interface2" style="html=1;align=left;spacingLeft=4;verticalAlign=top;strokeColor=none;fillColor=none;whiteSpace=wrap;" vertex="1" parent="6Nme4GcsVJMJShtL-cmH-50">
          <mxGeometry y="131" width="172.5" height="30" as="geometry" />
        </mxCell>
        <mxCell id="6Nme4GcsVJMJShtL-cmH-59" value="" style="fontStyle=1;align=center;verticalAlign=top;childLayout=stackLayout;horizontal=1;horizontalStack=0;resizeParent=1;resizeParentMax=0;resizeLast=0;marginBottom=0;" vertex="1" parent="1">
          <mxGeometry x="530" y="620" width="172.5" height="161" as="geometry" />
        </mxCell>
        <mxCell id="6Nme4GcsVJMJShtL-cmH-60" value="PDF Service" style="html=1;align=left;spacingLeft=4;verticalAlign=top;strokeColor=none;fillColor=none;whiteSpace=wrap;" vertex="1" parent="6Nme4GcsVJMJShtL-cmH-59">
          <mxGeometry width="172.5" height="40" as="geometry" />
        </mxCell>
        <mxCell id="6Nme4GcsVJMJShtL-cmH-61" value="" style="shape=module;jettyWidth=10;jettyHeight=4;" vertex="1" parent="6Nme4GcsVJMJShtL-cmH-60">
          <mxGeometry x="1" width="16" height="20" relative="1" as="geometry">
            <mxPoint x="-25" y="9" as="offset" />
          </mxGeometry>
        </mxCell>
        <mxCell id="6Nme4GcsVJMJShtL-cmH-62" value="" style="line;strokeWidth=1;fillColor=none;align=left;verticalAlign=middle;spacingTop=-1;spacingLeft=3;spacingRight=3;rotatable=0;labelPosition=right;points=[];portConstraint=eastwest;" vertex="1" parent="6Nme4GcsVJMJShtL-cmH-59">
          <mxGeometry y="40" width="172.5" height="8" as="geometry" />
        </mxCell>
        <mxCell id="6Nme4GcsVJMJShtL-cmH-63" value="provided interfaces" style="html=1;align=center;spacingLeft=4;verticalAlign=top;strokeColor=none;fillColor=none;whiteSpace=wrap;" vertex="1" parent="6Nme4GcsVJMJShtL-cmH-59">
          <mxGeometry y="48" width="172.5" height="25" as="geometry" />
        </mxCell>
        <mxCell id="6Nme4GcsVJMJShtL-cmH-64" value="Interface1" style="html=1;align=left;spacingLeft=4;verticalAlign=top;strokeColor=none;fillColor=none;whiteSpace=wrap;" vertex="1" parent="6Nme4GcsVJMJShtL-cmH-59">
          <mxGeometry y="73" width="172.5" height="25" as="geometry" />
        </mxCell>
        <mxCell id="6Nme4GcsVJMJShtL-cmH-65" value="" style="line;strokeWidth=1;fillColor=none;align=left;verticalAlign=middle;spacingTop=-1;spacingLeft=3;spacingRight=3;rotatable=0;labelPosition=right;points=[];portConstraint=eastwest;" vertex="1" parent="6Nme4GcsVJMJShtL-cmH-59">
          <mxGeometry y="98" width="172.5" height="8" as="geometry" />
        </mxCell>
        <mxCell id="6Nme4GcsVJMJShtL-cmH-66" value="required interfaces" style="html=1;align=center;spacingLeft=4;verticalAlign=top;strokeColor=none;fillColor=none;whiteSpace=wrap;" vertex="1" parent="6Nme4GcsVJMJShtL-cmH-59">
          <mxGeometry y="106" width="172.5" height="25" as="geometry" />
        </mxCell>
        <mxCell id="6Nme4GcsVJMJShtL-cmH-67" value="Interface2" style="html=1;align=left;spacingLeft=4;verticalAlign=top;strokeColor=none;fillColor=none;whiteSpace=wrap;" vertex="1" parent="6Nme4GcsVJMJShtL-cmH-59">
          <mxGeometry y="131" width="172.5" height="30" as="geometry" />
        </mxCell>
        <mxCell id="6Nme4GcsVJMJShtL-cmH-68" value="" style="fontStyle=1;align=center;verticalAlign=top;childLayout=stackLayout;horizontal=1;horizontalStack=0;resizeParent=1;resizeParentMax=0;resizeLast=0;marginBottom=0;" vertex="1" parent="1">
          <mxGeometry x="400" y="20" width="172.5" height="161" as="geometry" />
        </mxCell>
        <mxCell id="6Nme4GcsVJMJShtL-cmH-69" value="Customer service" style="html=1;align=left;spacingLeft=4;verticalAlign=top;strokeColor=none;fillColor=none;whiteSpace=wrap;" vertex="1" parent="6Nme4GcsVJMJShtL-cmH-68">
          <mxGeometry width="172.5" height="40" as="geometry" />
        </mxCell>
        <mxCell id="6Nme4GcsVJMJShtL-cmH-70" value="" style="shape=module;jettyWidth=10;jettyHeight=4;" vertex="1" parent="6Nme4GcsVJMJShtL-cmH-69">
          <mxGeometry x="1" width="16" height="20" relative="1" as="geometry">
            <mxPoint x="-25" y="9" as="offset" />
          </mxGeometry>
        </mxCell>
        <mxCell id="6Nme4GcsVJMJShtL-cmH-71" value="" style="line;strokeWidth=1;fillColor=none;align=left;verticalAlign=middle;spacingTop=-1;spacingLeft=3;spacingRight=3;rotatable=0;labelPosition=right;points=[];portConstraint=eastwest;" vertex="1" parent="6Nme4GcsVJMJShtL-cmH-68">
          <mxGeometry y="40" width="172.5" height="8" as="geometry" />
        </mxCell>
        <mxCell id="6Nme4GcsVJMJShtL-cmH-72" value="provided interfaces" style="html=1;align=center;spacingLeft=4;verticalAlign=top;strokeColor=none;fillColor=none;whiteSpace=wrap;" vertex="1" parent="6Nme4GcsVJMJShtL-cmH-68">
          <mxGeometry y="48" width="172.5" height="25" as="geometry" />
        </mxCell>
        <mxCell id="6Nme4GcsVJMJShtL-cmH-73" value="Interface1" style="html=1;align=left;spacingLeft=4;verticalAlign=top;strokeColor=none;fillColor=none;whiteSpace=wrap;" vertex="1" parent="6Nme4GcsVJMJShtL-cmH-68">
          <mxGeometry y="73" width="172.5" height="25" as="geometry" />
        </mxCell>
        <mxCell id="6Nme4GcsVJMJShtL-cmH-74" value="" style="line;strokeWidth=1;fillColor=none;align=left;verticalAlign=middle;spacingTop=-1;spacingLeft=3;spacingRight=3;rotatable=0;labelPosition=right;points=[];portConstraint=eastwest;" vertex="1" parent="6Nme4GcsVJMJShtL-cmH-68">
          <mxGeometry y="98" width="172.5" height="8" as="geometry" />
        </mxCell>
        <mxCell id="6Nme4GcsVJMJShtL-cmH-75" value="required interfaces" style="html=1;align=center;spacingLeft=4;verticalAlign=top;strokeColor=none;fillColor=none;whiteSpace=wrap;" vertex="1" parent="6Nme4GcsVJMJShtL-cmH-68">
          <mxGeometry y="106" width="172.5" height="25" as="geometry" />
        </mxCell>
        <mxCell id="6Nme4GcsVJMJShtL-cmH-76" value="Interface2" style="html=1;align=left;spacingLeft=4;verticalAlign=top;strokeColor=none;fillColor=none;whiteSpace=wrap;" vertex="1" parent="6Nme4GcsVJMJShtL-cmH-68">
          <mxGeometry y="131" width="172.5" height="30" as="geometry" />
        </mxCell>
      </root>
    </mxGraphModel>
  </diagram>
</mxfile>
